control3min_grf.mot
version=1
nRows=27
nColumns 19
inDegrees=yes
endheader
time	1_ground_force_vx	1_ground_force_vy	1_ground_force_vz	1_ground_force_px	1_ground_force_py	1_ground_force_pz	1_ground_torque_x	1_ground_torque_y	1_ground_torque_z	2_ground_force_vx	2_ground_force_vy	2_ground_force_vz	2_ground_force_px	2_ground_force_py	2_ground_force_pz	2_ground_torque_x	2_ground_torque_y	2_ground_torque_z
            3.751500	           23.539423	           62.318861	           13.644860	           -0.294275	            0.006385	           -0.445670	           -0.100985	           -0.267351	           -0.058537	           30.886955	           49.077196	            5.323658	           -0.340523	            0.005236	           -0.692469	           -0.297727	           -0.473067	           -0.051316
            3.752000	           22.204249	           62.508700	           11.356137	           -0.294238	            0.006407	           -0.450874	            0.049991	            0.140734	            0.025567	           30.408884	           51.655757	            4.722991	           -0.343223	            0.005217	           -0.690073	           -0.055859	           -0.094889	           -0.008676
            3.752500	           20.273227	           65.221161	            9.308994	           -0.292457	            0.006401	           -0.449353	            0.064238	            0.206659	            0.029496	           34.063788	           51.127720	            1.575283	           -0.352843	            0.005165	           -0.685060	            0.156688	            0.235180	            0.007246
            3.753000	           18.206776	           68.290390	            8.135001	           -0.295765	            0.006384	           -0.445638	           -0.021077	           -0.079056	           -0.009417	           41.091248	           50.795844	           -1.526275	           -0.354999	            0.005152	           -0.683625	            0.099857	            0.123441	           -0.003709
            3.753500	           16.784447	           71.716147	            7.923934	           -0.292715	            0.006384	           -0.445385	           -0.082786	           -0.353726	           -0.039083	           46.480546	           50.266367	           -2.516028	           -0.359126	            0.005141	           -0.684761	           -0.376210	           -0.406852	            0.020365
            3.754000	           16.831617	           75.678461	            8.766232	           -0.288394	            0.006397	           -0.448154	           -0.106103	           -0.477059	           -0.055260	           47.645890	           52.106054	           -0.820543	           -0.360296	            0.005165	           -0.692509	           -0.691054	           -0.755744	            0.011901
            3.754500	           17.153318	           81.263614	            9.523092	           -0.289231	            0.006382	           -0.444695	           -0.110256	           -0.522337	           -0.061211	           44.876336	           53.927515	            2.002889	           -0.356523	            0.005202	           -0.699167	           -0.694953	           -0.835119	           -0.031017
            3.755000	           17.106998	           84.508190	            9.582975	           -0.290760	            0.006385	           -0.445466	           -0.061437	           -0.303497	           -0.034416	           39.630984	           53.714881	            4.679365	           -0.351378	            0.005216	           -0.697880	           -0.388733	           -0.526879	           -0.045899
            3.755500	           16.276771	           89.742813	            7.956626	           -0.290178	            0.006391	           -0.447011	            0.019377	            0.106836	            0.009472	           36.593461	           51.674906	            5.611995	           -0.351477	            0.005187	           -0.690022	           -0.109588	           -0.154753	           -0.016806
            3.756000	           14.575248	           95.878793	            6.290448	           -0.288205	            0.006388	           -0.446149	            0.048615	            0.319799	            0.020981	           37.107794	           51.863761	            4.814655	           -0.351925	            0.005156	           -0.681741	            0.081398	            0.113766	            0.010561
            3.756500	           12.369418	          103.456407	            4.723417	           -0.286923	            0.006376	           -0.443234	            0.003605	            0.030152	            0.001377	           40.845220	           54.644372	            3.462002	           -0.352523	            0.005160	           -0.683320	            0.188909	            0.252729	            0.016012
            3.757000	           10.303136	          109.949308	            3.885101	           -0.286341	            0.006374	           -0.442687	           -0.032156	           -0.343149	           -0.012125	           45.574697	           55.216915	            2.617255	           -0.357393	            0.005157	           -0.687411	           -0.158475	           -0.192003	           -0.009101
            3.757500	            8.559478	          116.979923	            3.782002	           -0.286131	            0.006374	           -0.442859	           -0.052407	           -0.716231	           -0.023156	           47.821704	           55.775806	            3.087551	           -0.356340	            0.005186	           -0.694601	           -0.588491	           -0.686373	           -0.037995
            3.758000	            7.504259	          125.270761	            4.095311	           -0.284641	            0.006374	           -0.442720	           -0.046529	           -0.776717	           -0.025392	           46.688783	           58.343462	            4.880496	           -0.349918	            0.005238	           -0.702469	           -0.705841	           -0.882036	           -0.073783
            3.758500	            7.319082	          132.662404	            3.944034	           -0.284915	            0.006373	           -0.442463	           -0.022463	           -0.407162	           -0.012105	           41.630625	           58.133178	            7.087611	           -0.348530	            0.005229	           -0.698739	           -0.588986	           -0.822462	           -0.100275
            3.759000	            6.582990	          141.316784	            3.570253	           -0.284857	            0.006368	           -0.441299	            0.001096	            0.023536	            0.000595	           35.579978	           60.313270	            9.303687	           -0.343713	            0.005232	           -0.694677	           -0.142225	           -0.241093	           -0.037190
            3.759500	            5.386779	          149.253159	            2.460824	           -0.283873	            0.006366	           -0.440846	            0.009945	            0.275542	            0.004543	           31.586769	           63.426735	           10.067401	           -0.341215	            0.005221	           -0.689027	            0.253576	            0.509184	            0.080820
            3.760000	            3.319538	          155.387298	            1.208259	           -0.283648	            0.006373	           -0.442485	            0.003539	            0.165639	            0.001288	           31.529763	           66.190305	            9.654923	           -0.339931	            0.005217	           -0.686499	            0.293794	            0.616761	            0.089965
            3.760500	            0.518534	          161.161354	           -0.181599	           -0.283526	            0.006370	           -0.441764	           -0.000451	           -0.140191	            0.000158	           34.277608	           70.622690	            8.871740	           -0.337842	            0.005238	           -0.690495	            0.081485	            0.167885	            0.021090
            3.761000	           -2.831531	          168.014735	           -1.061039	           -0.283043	            0.006363	           -0.440005	            0.011903	           -0.706295	            0.004460	           37.121977	           74.317482	            8.461312	           -0.336482	            0.005257	           -0.694306	           -0.310021	           -0.620655	           -0.070664
            3.761500	           -5.082228	          175.230237	           -2.262655	           -0.281689	            0.006361	           -0.439600	            0.021976	           -0.757725	            0.009784	           37.382592	           80.026083	            8.763130	           -0.333026	            0.005284	           -0.698356	           -0.475620	           -1.018176	           -0.111494
            3.762000	           -6.872994	          180.460938	           -3.015352	           -0.282062	            0.006360	           -0.439431	            0.021246	           -0.557849	            0.009321	           33.477225	           84.796217	            9.814286	           -0.330794	            0.005282	           -0.695672	           -0.408239	           -1.034051	           -0.119681
            3.762500	           -7.287577	          186.411198	           -3.355668	           -0.282267	            0.006357	           -0.438554	            0.003569	           -0.091280	            0.001643	           26.896280	           91.028389	           11.294187	           -0.327078	            0.005289	           -0.693906	           -0.062876	           -0.212798	           -0.026403
            3.763000	           -7.932871	          191.823370	           -4.339716	           -0.282661	            0.006361	           -0.439538	           -0.009205	            0.222581	           -0.005036	           21.017753	           97.265777	           12.022939	           -0.323701	            0.005297	           -0.692655	            0.160086	            0.740847	            0.091575
            3.763500	           -8.898888	          198.136218	           -5.181536	           -0.281502	            0.006358	           -0.438853	           -0.005557	            0.123733	           -0.003236	           17.529511	          103.146675	           11.857727	           -0.321970	            0.005302	           -0.692328	            0.196595	            1.156798	            0.132985
            3.764000	          -11.056347	          202.465717	           -5.983044	           -0.282027	            0.006362	           -0.439803	            0.017641	           -0.323049	            0.009546	           18.111791	          110.516313	           11.461397	           -0.319602	            0.005313	           -0.692844	            0.093030	            0.567660	            0.058871
            3.764500	          -13.306424	          208.779103	           -7.005101	           -0.282329	            0.006357	           -0.438565	            0.036708	           -0.575956	            0.019325	           19.910754	          118.259316	           10.878151	           -0.317678	            0.005323	           -0.693859	           -0.043344	           -0.257442	           -0.023681
